<svg xmlns="http://www.w3.org/2000/svg" width="1200" height="420" viewBox="0 0 1200 420" role="img" aria-labelledby="title desc">
  <title id="title">Wamule buyer journey</title><desc id="desc">A left-to-right sequence from inquiry to post-sale management.</desc>
  <rect width="1200" height="420" fill="#f8fbf8"/>
  <g font-family="Arial, sans-serif" font-size="19" font-weight="700" fill="#173e2c" text-anchor="middle">
    <g fill="#dcefe1" stroke="#1f6b45" stroke-width="2"><rect x="32" y="76" width="130" height="56" rx="8"/><rect x="202" y="76" width="130" height="56" rx="8"/><rect x="372" y="76" width="150" height="56" rx="8"/><rect x="562" y="76" width="150" height="56" rx="8"/><rect x="752" y="76" width="150" height="56" rx="8"/><rect x="942" y="76" width="180" height="56" rx="8"/><rect x="32" y="250" width="150" height="56" rx="8"/><rect x="222" y="250" width="150" height="56" rx="8"/><rect x="412" y="250" width="150" height="56" rx="8"/><rect x="602" y="250" width="150" height="56" rx="8"/><rect x="792" y="250" width="150" height="56" rx="8"/><rect x="982" y="250" width="180" height="56" rx="8"/></g>
    <text x="97" y="110">Inquiry</text><text x="267" y="110">Lead</text><text x="447" y="110">First contact</text><text x="637" y="110">Qualification</text><text x="827" y="110">Lot discussion</text><text x="1032" y="110">Site visit</text>
    <text x="107" y="284">Reservation</text><text x="297" y="284">Deposit review</text><text x="487" y="284">Application</text><text x="677" y="284">Approval</text><text x="867" y="284">Customer</text><text x="1072" y="284">Contract &amp; post-sale</text>
  </g>
  <g stroke="#7b5133" stroke-width="3" fill="none" marker-end="url(#arrow)"><path d="M162 104H194"/><path d="M332 104H364"/><path d="M522 104H554"/><path d="M712 104H744"/><path d="M902 104H934"/><path d="M1032 140V196H107V242"/><path d="M182 278H214"/><path d="M372 278H404"/><path d="M562 278H594"/><path d="M752 278H784"/><path d="M942 278H974"/></g>
  <defs><marker id="arrow" markerWidth="10" markerHeight="10" refX="9" refY="3" orient="auto"><path d="M0,0 L0,6 L9,3 z" fill="#7b5133"/></marker></defs>
</svg>
